{"title":"Sevyn Streeter Ft. Chris Brown - It Won't Stop [Music Video] 720","uid":9162490,"size":54713373,"categoryP":"video","categoryS":"music_videos","magnet":"?xt=urn:btih:63cf37dfd2bd7f663c00b08958b035d3fdafc897&amp;dn=Sevyn+Streeter+Ft.+Chris+Brown+-+It+Won%27t+Stop+%5BMusic+Video%5D+720&amp;tr=udp%3A%2F%2Ftracker.openbittorrent.com%3A80&amp;tr=udp%3A%2F%2Fopen.demonii.com%3A1337&amp;tr=udp%3A%2F%2Ftracker.coppersurfer.tk%3A6969&amp;tr=udp%3A%2F%2Fexodus.desync.com%3A6969","seeders":3,"leechers":1,"uploader":"Sbyky","files":1,"time":1383893306,"description":"[IMG]http://cdn.piczend.com/images/5D6UUEB0/1383848633_itwontstop.jpg[/IMG]\n\nGeneral\nComplete name                            : Sevyn Streeter Ft. Chris Brown - It Won't Stop [Music Video] 720p [Sbyky].MP4\nFormat                                   : MPEG-4\nFormat profile                           : Base Media / Version 2\nCodec ID                                 : mp42\nFile size                                : 52.2 MiB\nDuration                                 : 4mn 37s\nOverall bit rate mode                    : Variable\nOverall bit rate                         : 1 579 Kbps\nEncoded date                             : UTC 2013-10-10 07:07:39\nTagged date                              : UTC 2013-10-10 07:07:39\n\nVideo\nID                                       : 1\nFormat                                   : AVC\nFormat/Info                              : Advanced Video Codec\nFormat profile                           : &lt;a class=&quot;__cf_email__&quot; href=&quot;/cdn-cgi/l/email-protection&quot; data-cfemail=&quot;3a775b53547a7609140b&quot;&gt;[email&amp;#160;protected]&lt;/a&gt;&lt;script cf-hash='f9e31' type=&quot;text/javascript&quot;&gt;\n/* &lt;![CDATA[ */!function(){try{var t=&quot;currentScript&quot;in document?document.currentScript:function(){for(var t=document.getElementsByTagName(&quot;script&quot;),e=t.length;e--;)if(t[e].getAttribute(&quot;cf-hash&quot;))return t[e]}();if(t&amp;&amp;t.previousSibling){var e,r,n,i,c=t.previousSibling,a=c.getAttribute(&quot;data-cfemail&quot;);if(a){for(e=&quot;&quot;,r=parseInt(a.substr(0,2),16),n=2;a.length-n;n+=2)i=parseInt(a.substr(n,2),16)^r,e+=String.fromCharCode(i);e=document.createTextNode(e),c.parentNode.replaceChild(e,c)}}}catch(u){}}();/* ]]&gt; */&lt;/script&gt;\nFormat settings, CABAC                   : Yes\nFormat settings, ReFrames                : 3 frames\nCodec ID                                 : avc1\nCodec ID/Info                            : Advanced Video Coding\nDuration                                 : 4mn 37s\nSource duration                          : 4mn 37s\nBit rate                                 : 1 324 Kbps\nWidth                                    : 1 280 pixels\nHeight                                   : 720 pixels\nDisplay aspect ratio                     : 16:9\nFrame rate mode                          : Constant\nFrame rate                               : 23.976 fps\nColor space                              : YUV\nChroma subsampling                       : 4:2:0\nBit depth                                : 8 bits\nScan type                                : Progressive\nBits/(Pixel*Frame)                       : 0.060\nStream size                              : 43.7 MiB (84%)\nSource stream size                       : 43.7 MiB (84%)\nEncoded date                             : UTC 2013-10-10 07:07:39\nTagged date                              : UTC 2013-10-10 07:07:39\n\nAudio\nID                                       : 2\nFormat                                   : AAC\nFormat/Info                              : Advanced Audio Codec\nFormat profile                           : LC\nCodec ID                                 : 40\nDuration                                 : 4mn 37s\nBit rate mode                            : Variable\nBit rate                                 : 254 Kbps\nChannel(s)                               : 2 channels\nChannel positions                        : Front: L R\nSampling rate                            : 44.1 KHz\nCompression mode                         : Lossy\nStream size                              : 8.38 MiB (16%)\nEncoded date                             : UTC 2013-10-10 07:07:41\nTagged date                              : UTC 2013-10-10 07:07:41\n\nShared By Sbyky\n[IMG]http://cdn.piczend.com/images/X3Ag13N3/1379453786_saythanks.gif[/IMG]\n[IMG]http://cdn.piczend.com/images/gGqhX2S8/1379453780_keepseeding.gif[/IMG]","torrent":{"xt":"urn:btih:63cf37dfd2bd7f663c00b08958b035d3fdafc897","amp;dn":"Sevyn+Streeter+Ft.+Chris+Brown+-+It+Won%27t+Stop+%5BMusic+Video%5D+720","amp;tr":["udp%3A%2F%2Ftracker.openbittorrent.com%3A80","udp%3A%2F%2Fopen.demonii.com%3A1337","udp%3A%2F%2Ftracker.coppersurfer.tk%3A6969","udp%3A%2F%2Fexodus.desync.com%3A6969"],"infoHash":"63cf37dfd2bd7f663c00b08958b035d3fdafc897","infoHashBuffer":{"type":"Buffer","data":[99,207,55,223,210,189,127,102,60,0,176,137,88,176,53,211,253,175,200,151]},"announce":[],"urlList":[]}}